<svg xmlns="http://www.w3.org/2000/svg" xmlns:xlink="http://www.w3.org/1999/xlink" version="1.1" viewBox="0 0 96 96" x="0px" y="0px"><path d="M48 55.344c-10.464 0-18.976-6.108-18.976-13.616s8.512-13.62 18.976-13.62 18.976 6.108 18.976 13.616-8.512 13.62-18.976 13.62zM48 32.108c-8.116 0-14.976 4.416-14.976 9.616 0 5.216 6.856 9.616 14.976 9.616 8.116 0 14.976-4.412 14.976-9.616s-6.86-9.616-14.976-9.616z" fill="#000000"></path><path d="M79.728 86.072h-63.452c-3.376 0-8.276-2.612-8.276-6.704v-17.256c0-0.408 0.128-0.804 0.364-1.144l11.148-15.876c0.44-0.624 1.196-0.944 1.956-0.824 0.756 0.12 1.376 0.668 1.596 1.404 2.464 8.24 13.344 14.44 25.316 14.44 11.832 0 22.244-6.080 24.748-14.444 0.22-0.74 0.844-1.28 1.604-1.404 0.752-0.128 1.516 0.208 1.952 0.836l10.956 15.884c0.244 0.32 0.36 0.72 0.36 1.124v17.252c0 4.1-4.9 6.712-8.272 6.712zM12 62.752v16.616c0 1.164 2.436 2.704 4.276 2.704h63.452c1.836 0 4.272-1.54 4.272-2.704v-16.632l-8.536-12.368c-4.476 8.148-15.184 13.744-27.084 13.744-11.996 0-23.112-5.728-27.648-13.796l-8.732 12.436z" fill="#000000"></path><path d="M90.828 42.068h-12.688c-2.564 0-6.14-1.916-6.14-5.048v-3.136c0-6.304-12.416-10.544-24-10.544-11.588 0-24 4.24-24 10.544v3.136c0 3.128-3.576 5.048-6.14 5.048h-12.688c-2.852 0-5.172-2.264-5.172-5.048v-5.488c0-13.34 24.916-21.6 48-21.6s48 8.26 48 21.6v5.488c0 2.784-2.32 5.048-5.172 5.048zM48 19.34c13.58 0 28 5.084 28 14.544v3.136c0.084 0.312 1.18 1.048 2.14 1.048h12.688c0.668 0 1.172-0.452 1.172-1.048v-5.488c0-10.084-23.236-17.6-44-17.6-20.768 0-44 7.532-44 17.6v5.488c0 0.584 0.504 1.048 1.172 1.048h12.688c0.96 0 2.052-0.736 2.14-1.072v-3.112c0-9.448 14.424-14.544 28-14.544z" fill="#000000"></path></svg>